<?xml version="1.0" encoding="UTF-8"?>
<svg version="1.1" xmlns="http://www.w3.org/2000/svg" width="207" height="235">
  <path d="M0 0 C2.00070646 0.00313515 4.00139502 -0.02108949 6.00195312 -0.0456543 C26.39502999 -0.05569026 47.6555307 5.49078441 63.90039062 18.31567383 C62.26890106 22.20900119 59.72411121 24.96286458 56.90039062 28.06567383 C56.44921875 28.57227539 55.99804688 29.07887695 55.53320312 29.60083008 C54.3667825 30.881132 53.13755091 32.10359111 51.90039062 33.31567383 C51.24039063 33.31567383 50.58039063 33.31567383 49.90039062 33.31567383 C49.56007812 34.12004883 49.56007812 34.12004883 49.21289062 34.94067383 C47.44468973 38.14027544 45.3636886 40.60604606 42.90039062 43.31567383 C42.24039063 43.31567383 41.58039063 43.31567383 40.90039062 43.31567383 C40.63226563 43.95504883 40.36414063 44.59442383 40.08789062 45.25317383 C38.90039062 47.31567383 38.90039062 47.31567383 35.90039062 48.31567383 C33.80664063 47.42504883 33.80664063 47.42504883 31.40039062 46.06567383 C17.61694037 38.99673291 0.61676508 37.63057511 -14.34960938 42.00317383 C-16.28559083 42.72412525 -18.20498156 43.49215662 -20.09960938 44.31567383 C-20.98648438 44.68950195 -21.87335938 45.06333008 -22.78710938 45.44848633 C-37.73732178 52.33105363 -49.67595836 64.5993111 -55.41210938 80.06567383 C-56.00219682 81.80656528 -56.56349199 83.55741207 -57.09960938 85.31567383 C-57.45667969 86.37012695 -57.81375 87.42458008 -58.18164062 88.51098633 C-62.3799063 105.91145766 -58.00455137 123.17727244 -49.09960938 138.31567383 C-48.37773438 139.21286133 -47.65585937 140.11004883 -46.91210938 141.03442383 C-45.09960938 143.31567383 -45.09960938 143.31567383 -45.09960938 145.31567383 C-44.43960938 145.31567383 -43.77960937 145.31567383 -43.09960938 145.31567383 C-42.56335937 146.01692383 -42.02710938 146.71817383 -41.47460938 147.44067383 C-32.61091873 158.17040461 -17.65702042 164.57435498 -4.09960938 166.31567383 C14.0562571 167.79176053 31.04890976 163.11017952 45.27539062 151.44067383 C57.80467637 140.45921922 65.76403526 125.27709445 67.22680664 108.5925293 C68.21874766 91.9112607 68.01607564 75.19589876 67.96905518 58.49304199 C67.95866727 54.40267461 67.95422504 50.31230071 67.94921875 46.22192383 C67.93862136 38.25315636 67.92164511 30.28441998 67.90039062 22.31567383 C72.73689701 24.65053898 76.15211556 27.47815412 79.90039062 31.31567383 C80.74601563 32.09942383 81.59164062 32.88317383 82.46289062 33.69067383 C84.65730016 36.0538841 86.16019267 38.28217358 87.67382812 41.11254883 C89.28326147 44.00337815 91.0689276 46.7697847 92.83789062 49.56567383 C106.60243306 71.79802338 111.37641543 100.87257293 105.72241211 126.61767578 C104.92335954 129.57459145 103.95547363 132.44100504 102.90039062 135.31567383 C102.53816406 136.41782227 102.1759375 137.5199707 101.80273438 138.65551758 C96.15168846 154.76578747 86.73493262 168.01524783 74.43164062 179.75708008 C72.80206522 181.25580774 72.80206522 181.25580774 71.90039062 183.31567383 C70.27372515 184.24064047 68.64471677 185.16341494 66.98242188 186.02270508 C64.69099692 187.37286166 64.69099692 187.37286166 62.11132812 189.70239258 C44.42935183 204.68314724 16.22580979 208.61268339 -6.09790039 207.03637695 C-23.37360957 205.29474195 -38.41621403 199.31285235 -53.09960938 190.31567383 C-54.42261041 189.62873098 -55.7504797 188.94976478 -57.09960938 188.31567383 C-57.09960938 187.65567383 -57.09960938 186.99567383 -57.09960938 186.31567383 C-57.66035156 186.07075195 -58.22109375 185.82583008 -58.79882812 185.57348633 C-66.18544891 181.53529975 -73.1746283 174.1160616 -78.09960938 167.31567383 C-78.09960938 166.65567383 -78.09960938 165.99567383 -78.09960938 165.31567383 C-78.75960937 165.31567383 -79.41960937 165.31567383 -80.09960938 165.31567383 C-89.18472508 154.16799132 -95.61956862 138.35557398 -98.09960938 124.31567383 C-98.28394531 123.33598633 -98.46828125 122.35629883 -98.65820312 121.34692383 C-99.47035797 115.4437687 -99.24327419 109.44791897 -99.22460938 103.50317383 C-99.22847656 102.28307617 -99.23234375 101.06297852 -99.23632812 99.8059082 C-99.21633411 81.20147664 -99.21633411 81.20147664 -96.34960938 73.94067383 C-95.98996094 73.02415039 -95.6303125 72.10762695 -95.25976562 71.16333008 C-94.87691406 70.22360352 -94.4940625 69.28387695 -94.09960938 68.31567383 C-93.72707031 67.34500977 -93.35453125 66.3743457 -92.97070312 65.37426758 C-90.02345173 57.91373352 -86.31987991 51.12839626 -82.09960938 44.31567383 C-81.68195313 43.62731445 -81.26429687 42.93895508 -80.83398438 42.22973633 C-79.78710938 40.56567383 -79.78710938 40.56567383 -78.09960938 38.31567383 C-77.43960938 38.31567383 -76.77960938 38.31567383 -76.09960938 38.31567383 C-75.86242187 37.75364258 -75.62523438 37.19161133 -75.38085938 36.61254883 C-65.84892592 19.52481447 -43.55445567 8.96101714 -25.66210938 3.28833008 C-24.48648438 2.96735352 -23.31085938 2.64637695 -22.09960938 2.31567383 C-21.47070801 2.13093506 -20.84180664 1.94619629 -20.19384766 1.75585938 C-13.51858716 -0.00239143 -6.87236594 -0.02240989 0 0 Z" fill="#FFFFFF" transform="translate(99.099609375,-0.315673828125)"/>
  <path d="M0 0 C8.2067134 6.76722939 12.9405772 13.91563827 14.1328125 24.71875 C14.50123834 36.01714249 11.48751805 44.94065613 3.75 53.25 C-4.42555571 60.87245258 -12.69484349 62.84045013 -23.73046875 62.61328125 C-30.19726063 61.94578775 -35.85669352 59.84553765 -41.25 56.25 C-41.25 55.59 -41.25 54.93 -41.25 54.25 C-41.84683594 54.00378906 -42.44367188 53.75757813 -43.05859375 53.50390625 C-48.66944411 50.29341968 -52.02165247 42.79234422 -53.77734375 36.7578125 C-55.51866063 27.5187593 -54.80996175 18.54642637 -50.25 10.25 C-44.76218143 2.43740289 -38.17792224 -3.03187529 -28.80859375 -5.35546875 C-18.60677321 -6.9285739 -8.57014739 -6.07052107 0 0 Z" fill="#FFFFFF" transform="translate(123.25,74.75)"/>
</svg>
